<svg width="1024" height="1024" viewBox="0 0 1024 1024" xmlns="http://www.w3.org/2000/svg">
  <defs>
    <linearGradient id="bg" x1="150" y1="96" x2="874" y2="928" gradientUnits="userSpaceOnUse">
      <stop offset="0" stop-color="#122033"/>
      <stop offset="1" stop-color="#27496d"/>
    </linearGradient>
    <linearGradient id="orb" x1="292" y1="246" x2="734" y2="778" gradientUnits="userSpaceOnUse">
      <stop offset="0" stop-color="#fff6cc"/>
      <stop offset="0.55" stop-color="#f6b24f"/>
      <stop offset="1" stop-color="#b75a1d"/>
    </linearGradient>
    <linearGradient id="pillar" x1="0" y1="276" x2="0" y2="812" gradientUnits="userSpaceOnUse">
      <stop offset="0" stop-color="#fff6e6"/>
      <stop offset="1" stop-color="#f1d7b0"/>
    </linearGradient>
    <filter id="softGlow" x="-20%" y="-20%" width="140%" height="140%">
      <feGaussianBlur stdDeviation="26" result="blur"/>
      <feMerge>
        <feMergeNode in="blur"/>
        <feMergeNode in="SourceGraphic"/>
      </feMerge>
    </filter>
  </defs>

  <rect x="72" y="72" width="880" height="880" rx="224" fill="url(#bg)"/>
  <circle cx="512" cy="512" r="214" fill="url(#orb)" opacity="0.96" filter="url(#softGlow)"/>
  <circle cx="512" cy="512" r="286" fill="none" stroke="#f2cf8c" stroke-opacity="0.18" stroke-width="18"/>

  <g opacity="0.95">
    <rect x="248" y="310" width="84" height="414" rx="42" fill="url(#pillar)"/>
    <rect x="396" y="254" width="84" height="470" rx="42" fill="url(#pillar)"/>
    <rect x="544" y="326" width="84" height="398" rx="42" fill="url(#pillar)"/>
    <rect x="692" y="276" width="84" height="448" rx="42" fill="url(#pillar)"/>
  </g>

  <g opacity="0.98">
    <circle cx="290" cy="244" r="30" fill="#2fb06f"/>
    <circle cx="438" cy="196" r="30" fill="#d4553f"/>
    <circle cx="586" cy="182" r="30" fill="#d8b06b"/>
    <circle cx="734" cy="222" r="30" fill="#a8b4c7"/>
    <circle cx="512" cy="142" r="24" fill="#4f9ee8"/>
  </g>

  <g opacity="0.8">
    <path d="M252 786C314 742 388 718 512 718C636 718 710 742 772 786" fill="none" stroke="#fff4da" stroke-width="26" stroke-linecap="round"/>
    <path d="M324 840C380 808 434 794 512 794C590 794 644 808 700 840" fill="none" stroke="#f6b24f" stroke-opacity="0.75" stroke-width="18" stroke-linecap="round"/>
  </g>
</svg>
